<?xml version="1.0" encoding="utf-8"?>
<!-- Generator: Adobe Illustrator 21.1.0, SVG Export Plug-In . SVG Version: 6.00 Build 0)  -->
<svg version="1.1" id="Layer_1" xmlns="http://www.w3.org/2000/svg" xmlns:xlink="http://www.w3.org/1999/xlink" x="0px" y="0px"
	 viewBox="0 0 1505.3 336" style="enable-background:new 0 0 1505.3 336;" xml:space="preserve">
<g>
	<g>
		<path d="M265.6,0.3c-0.8,12.1-1.1,24.3-2.6,36.3c-3.4,27.1-11.2,52.9-22.9,77.5c-12.8,26.9-29.7,50.9-50.7,72
			c-0.4,0.4-0.7,0.8-1.2,1.3c34.8,47.4,69.5,94.8,104.5,142.5c-1.1,0.1-1.8,0.2-2.6,0.2c-29.6,0-59.2,0-88.8,0
			c-1.5,0-2.5-0.3-3.4-1.6c-37-50.5-74-101-111-151.4c-0.5-0.6-0.9-1.3-1.4-2.1c6.5-4.9,12.8-9.7,19.3-14.4
			c10.8-8,21.5-16.1,31-25.6c19.9-20,34.8-43.2,44.4-69.8c7.2-20.2,11-41,11.1-62.4c0-0.8,0-1.6-0.1-2.4
			C216,0.3,240.8,0.3,265.6,0.3z"/>
		<path d="M76.5,0.3c0,1,0.1,2.1,0.1,3.1c0,107.7,0,215.5,0,323.2c0,1.1,0,2.2,0,3.4c-25.4,0-50.5,0-75.9,0c0-110,0-219.8,0-329.7
			C25.9,0.3,51.2,0.3,76.5,0.3z"/>
		<path d="M386.1,0.3c0,1,0.1,2.1,0.1,3.1c0,107.7,0,215.5,0,323.2c0,1,0,2.1,0,3.3c-23.8,0-47.5,0-71.5,0c0-1.1,0-2.2,0-3.3
			c0-107.6,0-215.3,0-322.9c0-1.1-0.1-2.2-0.1-3.4C338.4,0.3,362.2,0.3,386.1,0.3z"/>
		<path d="M1505.9,297.4c-1.6,4.7-2.6,9.7-4.8,14.2c-8.1,16.6-26.1,25.5-44.9,22.8c-17.4-2.5-32.1-16.8-35.3-34.4
			c-4.9-27,15.4-51.2,42.8-51c20.5,0.2,38.2,15.4,41.7,35.9c0.1,0.5,0.3,1,0.5,1.5C1505.9,290,1505.9,293.7,1505.9,297.4z"/>
		<path d="M602.1,329.9c0-4.8,0-9.3,0-14.3c-28.2,18.4-58.7,24.8-91.5,18.2c-32.9-6.6-58.6-24.3-77-52.3
			c-29.8-45.3-25.1-105.6,10.9-145.6c9.8-10.9,21-19.8,34-26.6c12.9-6.8,26.5-11.1,40.9-12.8c14.5-1.8,28.9-1.1,43.1,2.3
			c14.1,3.4,27.2,9.2,39.6,17.5c0-4.9,0-9.5,0-14.2c22.9,0,45.5,0,68.3,0c0,75.9,0,151.8,0,227.8C647.6,329.9,625,329.9,602.1,329.9
			z M537.1,274.6c16.4-0.1,28.9-3.9,40-11.8c28-20,32.9-58.1,10.7-83.8c-22.4-25.9-63.1-28.9-89.1-6.6c-21.3,18.3-27,47.3-13.3,71.1
			C497.5,264.2,516.3,273.7,537.1,274.6z"/>
		<path d="M1322.3,116.3c0-5.1,0-9.6,0-14.2c22.8,0,45.4,0,68.2,0c0,76,0,151.8,0,227.8c-22.7,0-45.3,0-68.2,0c0-4.7,0-9.2,0-14.2
			c-31.4,20.1-64.8,25.8-100.3,16.1c-26.7-7.3-48.3-22.7-64.7-45c-32.4-44.2-30.4-106.2,4.9-147.9c19.9-23.5,45-37.7,75.5-42
			C1268.1,92.5,1296.1,99.2,1322.3,116.3z M1256.5,274.6c16.2-0.1,27.8-3.4,38.5-10.2c30.7-19.7,36.1-60.9,11.4-87.3
			c-22.1-23.6-60.2-26.4-85.7-6.1c-21.6,17.1-28.7,45.2-16.5,69.5C1215.6,263.2,1235.2,273.5,1256.5,274.6z"/>
		<path d="M1042,329.9c0-1.1,0-2.1,0-3.1c0-39,0-78.1,0-117.1c0-7.9-0.9-15.6-3.6-23.1c-5.5-15.2-16.3-24.1-32-27
			c-10.1-1.9-20.1-1.5-29.9,1.7c-18.8,6.2-29.2,19.5-32.2,38.9c-0.6,3.8-0.7,7.6-0.7,11.5c-0.1,38.4,0,76.8,0,115.2c0,1,0,2,0,3.2
			c-23,0-45.8,0-68.7,0c0-75.9,0-151.8,0-227.8c22.5,0,45.1,0,67.8,0c0,8.1,0,16.2,0,24.4c0.3,0.2,0.5,0.4,0.8,0.6
			c0.3-0.5,0.4-1.1,0.8-1.6c12.9-16.2,29.9-25.1,50.1-28.2c22-3.4,43.5-1.5,63.8,7.8c31.9,14.7,49.4,39.6,51.9,74.8
			c0.1,1.8,0.2,3.5,0.2,5.3c0,47.2,0,94.4,0,141.6c0,1,0,2,0,3.2C1087.5,329.9,1064.9,329.9,1042,329.9z"/>
		<path d="M776.1,102c0,9.6,0,19,0,29c17.9-20.4,40.6-28.4,66.7-29.2c0,22.3,0,44.3,0,66c-5.4,0.8-10.8,1.2-15.9,2.4
			c-16.7,3.9-31.1,11.7-41.5,25.6c-6.2,8.3-9.1,17.6-9.1,28c0,34.3,0,68.6,0,102.9c0,1,0,1.9,0,3c-23.4,0-46.6,0-70,0
			c0-75.8,0-151.8,0-227.8C729.4,102,752.6,102,776.1,102z"/>
		<path d="M1436.4,128.5c-9,0-16.2-7.2-16.3-16.3c-0.1-9.1,7.3-16.5,16.4-16.5c8.9,0,16.2,7.4,16.2,16.4
			C1452.6,121.3,1445.4,128.5,1436.4,128.5z M1449.3,112.1c0-7.3-5.8-13.1-13.1-13.1c-7.2,0-13,6-12.9,13.2c0.1,7.1,5.9,12.9,13,13
			C1443.5,125.3,1449.3,119.4,1449.3,112.1z"/>
		<path d="M1443.2,120.4c-2.2,0.7-3.7,0.3-4.2-1.9c-0.2-0.7-0.6-1.3-0.8-2c-0.6-2.2-2-2.6-4.2-2c0,1.9,0,3.8,0,5.8c-1.1,0-2,0-3.1,0
			c0-5.6,0-11.1,0-17.3c3,0.2,6.1,0,9,0.8c3.5,0.9,4.5,5.7,2.2,8.5c-0.5,0.5-1,1-1.6,1.5C1441.3,116,1442.2,118.2,1443.2,120.4z
			 M1433.9,106.4c0,0.9,0,1.7,0,2.5c0,0.8,0,1.5,0,2.2c4.8,0.4,6.2-0.2,6.1-2.5C1440,106.6,1438.7,106.1,1433.9,106.4z"/>
	</g>
</g>
</svg>
