<svg xmlns="http://www.w3.org/2000/svg" width="246.66" height="21.57" viewBox="0 0 246.66 21.57">
  <path id="Path_1" data-name="Path 1" d="M17.16-6.27c0-7.05-10.41-5.4-10.41-9.06a1.867,1.867,0,0,1,2.16-1.92,2.28,2.28,0,0,1,2.43,2.19h5.55c-.21-4.02-3.3-6.3-7.89-6.3-4.41,0-7.68,2.22-7.68,6.21C1.26-7.68,11.79-9.78,11.79-5.88c0,1.23-.96,1.98-2.46,1.98A2.415,2.415,0,0,1,6.72-6.3H1.26C1.41-2.04,4.95.21,9.48.21,14.4.21,17.16-2.73,17.16-6.27Zm.81-10.68h5.58V0h5.13V-16.95h5.58v-4.11H17.97ZM41.28-6.96V0h5.13V-6.96l7.29-14.1H47.94l-4.05,8.82-4.08-8.82H33.99Zm13.29-14.1V0H66.42V-3.96H59.7v-17.1Zm26.01,0H67.68V0h12.9V-4.11H72.81V-8.73h6.87v-3.96H72.81v-4.26h7.77ZM86.94,0h6.21l3.48-13.86L99.99,0h6.21l5.49-21.06h-5.52L103.11-5.73l-3.6-15.33H93.87L90.12-5.73,87.09-21.06H81.6Zm26.13,0h5.13V-21.06h-5.13Zm22.95-6.27c0-7.05-10.41-5.4-10.41-9.06a1.867,1.867,0,0,1,2.16-1.92,2.28,2.28,0,0,1,2.43,2.19h5.55c-.21-4.02-3.3-6.3-7.89-6.3-4.41,0-7.68,2.22-7.68,6.21-.06,7.47,10.47,5.37,10.47,9.27,0,1.23-.96,1.98-2.46,1.98a2.415,2.415,0,0,1-2.61-2.4h-5.46c.15,4.26,3.69,6.51,8.22,6.51C133.26.21,136.02-2.73,136.02-6.27Zm14.85-14.79h-12.9V0h12.9V-4.11H143.1V-8.73h6.87v-3.96H143.1v-4.26h7.77Zm15.24,0q5.34,0,8.235,2.79a10.285,10.285,0,0,1,2.9,7.77q0,4.98-2.9,7.74T166.11,0H160.2V-21.06Zm0,19.92q4.77,0,7.26-2.475a9.274,9.274,0,0,0,2.49-6.885,9.367,9.367,0,0,0-2.49-6.93q-2.49-2.49-7.26-2.49h-4.56V-1.14Zm15.36-19.92V0h-1.35V-21.06ZM196.59,0l-5.4-8.97h-4.62V0h-1.35V-21.06h5.79a7.436,7.436,0,0,1,5.265,1.65,5.729,5.729,0,0,1,1.755,4.38,5.9,5.9,0,0,1-1.365,4A6.148,6.148,0,0,1,192.69-9.09L198.21,0ZM186.57-10.11h4.5a5.746,5.746,0,0,0,4.17-1.35,4.769,4.769,0,0,0,1.38-3.57q0-4.83-5.61-4.83h-4.44Zm15.63-9.81v8.79h8.4v1.14h-8.4v8.85h9.3V0H200.85V-21.06H211.5v1.14Zm11.34,9.42a11.634,11.634,0,0,1,1.305-5.565,9.689,9.689,0,0,1,3.6-3.825,9.79,9.79,0,0,1,5.145-1.38,10.494,10.494,0,0,1,6.06,1.68,9.633,9.633,0,0,1,3.6,4.71h-1.56a7.7,7.7,0,0,0-2.985-3.795,8.992,8.992,0,0,0-5.115-1.4,8.591,8.591,0,0,0-4.41,1.155,8.107,8.107,0,0,0-3.12,3.33,10.8,10.8,0,0,0-1.14,5.085,10.556,10.556,0,0,0,1.14,5.025,8.254,8.254,0,0,0,3.12,3.315,8.506,8.506,0,0,0,4.41,1.17,8.992,8.992,0,0,0,5.115-1.395A7.7,7.7,0,0,0,231.69-6.18h1.56a9.633,9.633,0,0,1-3.6,4.71A10.494,10.494,0,0,1,223.59.21a9.872,9.872,0,0,1-5.145-1.365,9.583,9.583,0,0,1-3.6-3.81A11.57,11.57,0,0,1,213.54-10.5Zm34.38-10.56v1.14h-6V0h-1.35V-19.92h-6v-1.14Z" transform="translate(-1.26 21.36)" fill="#222"/>
</svg>
